<mxfile host="app.diagrams.net" modified="2022-07-07T15:23:07.670Z" agent="5.0 (Windows NT 10.0; Win64; x64) AppleWebKit/537.36 (KHTML, like Gecko) Chrome/102.0.5005.115 Safari/537.36 OPR/88.0.4412.75" etag="pX8f512X1LDlNsyS4av1" version="20.0.4" type="github">
  <diagram id="e3YU8Oywu92elybDR2Wn" name="Page-1">
    <mxGraphModel dx="2384" dy="991" grid="1" gridSize="10" guides="1" tooltips="1" connect="1" arrows="1" fold="1" page="1" pageScale="1" pageWidth="1200" pageHeight="1200" math="0" shadow="0">
      <root>
        <mxCell id="0" />
        <mxCell id="1" parent="0" />
        <mxCell id="swxcC3oS6SGBnLIDUdWa-1" value="" style="rounded=0;whiteSpace=wrap;html=1;rotation=90;" parent="1" vertex="1">
          <mxGeometry x="380" y="60.63" width="243.75" height="122.5" as="geometry" />
        </mxCell>
        <mxCell id="swxcC3oS6SGBnLIDUdWa-2" value="" style="rounded=0;whiteSpace=wrap;html=1;rotation=0;" parent="1" vertex="1">
          <mxGeometry width="440" height="10" as="geometry" />
        </mxCell>
        <mxCell id="swxcC3oS6SGBnLIDUdWa-3" value="" style="rounded=0;whiteSpace=wrap;html=1;rotation=90;" parent="1" vertex="1">
          <mxGeometry x="979.37" y="979.38" width="438.75" height="2.5" as="geometry" />
        </mxCell>
        <mxCell id="swxcC3oS6SGBnLIDUdWa-4" value="" style="rounded=0;whiteSpace=wrap;html=1;rotation=90;" parent="1" vertex="1">
          <mxGeometry x="-214.68" y="978.44" width="436.25" height="6.88" as="geometry" />
        </mxCell>
        <mxCell id="swxcC3oS6SGBnLIDUdWa-5" value="" style="rounded=0;whiteSpace=wrap;html=1;rotation=0;" parent="1" vertex="1">
          <mxGeometry y="1190" width="440" height="10" as="geometry" />
        </mxCell>
        <mxCell id="swxcC3oS6SGBnLIDUdWa-6" value="" style="rounded=0;whiteSpace=wrap;html=1;rotation=90;" parent="1" vertex="1">
          <mxGeometry x="580" y="60.63" width="240" height="120" as="geometry" />
        </mxCell>
        <mxCell id="swxcC3oS6SGBnLIDUdWa-8" value="" style="rounded=0;whiteSpace=wrap;html=1;rotation=0;" parent="1" vertex="1">
          <mxGeometry x="760" width="440" height="10" as="geometry" />
        </mxCell>
        <mxCell id="swxcC3oS6SGBnLIDUdWa-14" value="" style="rounded=0;whiteSpace=wrap;html=1;rotation=0;" parent="1" vertex="1">
          <mxGeometry x="760" y="1197.5" width="440" height="2.5" as="geometry" />
        </mxCell>
        <mxCell id="swxcC3oS6SGBnLIDUdWa-15" value="" style="rounded=0;whiteSpace=wrap;html=1;rotation=90;" parent="1" vertex="1">
          <mxGeometry x="380" y="1020" width="240" height="120" as="geometry" />
        </mxCell>
        <mxCell id="swxcC3oS6SGBnLIDUdWa-16" value="" style="rounded=0;whiteSpace=wrap;html=1;rotation=90;" parent="1" vertex="1">
          <mxGeometry x="580" y="1020" width="240" height="120" as="geometry" />
        </mxCell>
        <mxCell id="swxcC3oS6SGBnLIDUdWa-17" value="" style="rounded=0;whiteSpace=wrap;html=1;rotation=-180;" parent="1" vertex="1">
          <mxGeometry x="955" y="640" width="245" height="120" as="geometry" />
        </mxCell>
        <mxCell id="swxcC3oS6SGBnLIDUdWa-18" value="" style="rounded=0;whiteSpace=wrap;html=1;rotation=-180;direction=east;" parent="1" vertex="1">
          <mxGeometry x="960" y="440" width="240" height="120" as="geometry" />
        </mxCell>
        <mxCell id="swxcC3oS6SGBnLIDUdWa-19" value="" style="rounded=0;whiteSpace=wrap;html=1;rotation=90;" parent="1" vertex="1">
          <mxGeometry x="978.12" y="214.38" width="433.75" height="10" as="geometry" />
        </mxCell>
        <mxCell id="swxcC3oS6SGBnLIDUdWa-20" value="" style="rounded=0;whiteSpace=wrap;html=1;rotation=-180;" parent="1" vertex="1">
          <mxGeometry y="640" width="245" height="120" as="geometry" />
        </mxCell>
        <mxCell id="swxcC3oS6SGBnLIDUdWa-21" value="" style="rounded=0;whiteSpace=wrap;html=1;rotation=-180;" parent="1" vertex="1">
          <mxGeometry x="-0.16" y="440" width="240" height="120" as="geometry" />
        </mxCell>
        <mxCell id="swxcC3oS6SGBnLIDUdWa-22" value="" style="rounded=0;whiteSpace=wrap;html=1;rotation=90;" parent="1" vertex="1">
          <mxGeometry x="-216.71" y="217.96" width="437.81" height="4.38" as="geometry" />
        </mxCell>
        <mxCell id="swxcC3oS6SGBnLIDUdWa-23" value="" style="whiteSpace=wrap;html=1;aspect=fixed;" parent="1" vertex="1">
          <mxGeometry x="260.01" y="60.63" width="119.37" height="119.37" as="geometry" />
        </mxCell>
        <mxCell id="swxcC3oS6SGBnLIDUdWa-24" value="" style="whiteSpace=wrap;html=1;aspect=fixed;" parent="1" vertex="1">
          <mxGeometry x="62.50999999999999" y="63.13999999999999" width="119.99" height="119.99" as="geometry" />
        </mxCell>
        <mxCell id="_yuqjuDPkQ9Inj_rigJe-7" value="" style="whiteSpace=wrap;html=1;aspect=fixed;" parent="1" vertex="1">
          <mxGeometry x="59.84" y="250" width="120.31" height="120.31" as="geometry" />
        </mxCell>
        <mxCell id="_yuqjuDPkQ9Inj_rigJe-8" value="" style="whiteSpace=wrap;html=1;aspect=fixed;" parent="1" vertex="1">
          <mxGeometry x="1018.44" y="1002.5" width="118.12" height="118.12" as="geometry" />
        </mxCell>
        <mxCell id="_yuqjuDPkQ9Inj_rigJe-9" value="" style="whiteSpace=wrap;html=1;aspect=fixed;" parent="1" vertex="1">
          <mxGeometry x="818.28" y="818.75" width="121.25" height="121.25" as="geometry" />
        </mxCell>
        <mxCell id="_yuqjuDPkQ9Inj_rigJe-10" value="" style="whiteSpace=wrap;html=1;aspect=fixed;" parent="1" vertex="1">
          <mxGeometry x="820" y="999.37" width="121.25" height="121.25" as="geometry" />
        </mxCell>
        <mxCell id="_yuqjuDPkQ9Inj_rigJe-12" value="" style="whiteSpace=wrap;html=1;aspect=fixed;" parent="1" vertex="1">
          <mxGeometry x="257.04" y="250" width="122.96" height="122.96" as="geometry" />
        </mxCell>
        <mxCell id="_yuqjuDPkQ9Inj_rigJe-13" value="" style="whiteSpace=wrap;html=1;aspect=fixed;" parent="1" vertex="1">
          <mxGeometry x="1020" y="818.75" width="120" height="120" as="geometry" />
        </mxCell>
        <mxCell id="_yuqjuDPkQ9Inj_rigJe-14" value="Center Box for Ghost" style="rounded=0;whiteSpace=wrap;html=1;" parent="1" vertex="1">
          <mxGeometry x="480" y="555" width="240" height="90" as="geometry" />
        </mxCell>
        <mxCell id="_yuqjuDPkQ9Inj_rigJe-15" value="" style="rounded=0;whiteSpace=wrap;html=1;" parent="1" vertex="1">
          <mxGeometry x="550" y="550" width="100" height="10" as="geometry" />
        </mxCell>
        <mxCell id="TXdNwO6QXVmH625FBI-7-1" value="" style="rounded=0;whiteSpace=wrap;html=1;" vertex="1" parent="1">
          <mxGeometry x="280" y="570" width="80" height="60" as="geometry" />
        </mxCell>
        <mxCell id="TXdNwO6QXVmH625FBI-7-2" value="" style="rounded=0;whiteSpace=wrap;html=1;" vertex="1" parent="1">
          <mxGeometry x="360" y="520" width="40" height="160" as="geometry" />
        </mxCell>
        <mxCell id="TXdNwO6QXVmH625FBI-7-3" value="" style="rounded=0;whiteSpace=wrap;html=1;" vertex="1" parent="1">
          <mxGeometry x="840.62" y="570" width="80" height="60" as="geometry" />
        </mxCell>
        <mxCell id="TXdNwO6QXVmH625FBI-7-4" value="" style="rounded=0;whiteSpace=wrap;html=1;" vertex="1" parent="1">
          <mxGeometry x="800.62" y="520" width="40" height="160" as="geometry" />
        </mxCell>
        <mxCell id="TXdNwO6QXVmH625FBI-7-6" value="" style="rounded=0;whiteSpace=wrap;html=1;direction=south;" vertex="1" parent="1">
          <mxGeometry x="570" y="760" width="60" height="80" as="geometry" />
        </mxCell>
        <mxCell id="TXdNwO6QXVmH625FBI-7-7" value="" style="rounded=0;whiteSpace=wrap;html=1;direction=south;" vertex="1" parent="1">
          <mxGeometry x="520" y="720" width="160" height="40" as="geometry" />
        </mxCell>
        <mxCell id="TXdNwO6QXVmH625FBI-7-9" value="" style="rounded=0;whiteSpace=wrap;html=1;direction=south;" vertex="1" parent="1">
          <mxGeometry x="570" y="360" width="60" height="80" as="geometry" />
        </mxCell>
        <mxCell id="TXdNwO6QXVmH625FBI-7-10" value="" style="rounded=0;whiteSpace=wrap;html=1;direction=south;" vertex="1" parent="1">
          <mxGeometry x="520" y="440" width="160" height="40" as="geometry" />
        </mxCell>
        <mxCell id="TXdNwO6QXVmH625FBI-7-11" value="" style="rounded=0;whiteSpace=wrap;html=1;" vertex="1" parent="1">
          <mxGeometry x="62.51" y="835.63" width="27.49" height="290" as="geometry" />
        </mxCell>
        <mxCell id="TXdNwO6QXVmH625FBI-7-13" value="" style="rounded=0;whiteSpace=wrap;html=1;rotation=90;" vertex="1" parent="1">
          <mxGeometry x="193.60999999999999" y="970" width="27.49" height="290" as="geometry" />
        </mxCell>
        <mxCell id="TXdNwO6QXVmH625FBI-7-14" value="" style="rounded=0;whiteSpace=wrap;html=1;rotation=90;" vertex="1" parent="1">
          <mxGeometry x="239.08" y="745" width="27.49" height="200" as="geometry" />
        </mxCell>
        <mxCell id="TXdNwO6QXVmH625FBI-7-15" value="" style="rounded=0;whiteSpace=wrap;html=1;rotation=-180;" vertex="1" parent="1">
          <mxGeometry x="330" y="830" width="27.49" height="210" as="geometry" />
        </mxCell>
        <mxCell id="TXdNwO6QXVmH625FBI-7-16" value="" style="whiteSpace=wrap;html=1;aspect=fixed;" vertex="1" parent="1">
          <mxGeometry x="146.73000000000002" y="918.75" width="121.25" height="121.25" as="geometry" />
        </mxCell>
        <mxCell id="TXdNwO6QXVmH625FBI-7-17" value="" style="rounded=0;whiteSpace=wrap;html=1;rotation=-180;" vertex="1" parent="1">
          <mxGeometry x="830" y="180" width="27.49" height="200" as="geometry" />
        </mxCell>
        <mxCell id="TXdNwO6QXVmH625FBI-7-18" value="" style="rounded=0;whiteSpace=wrap;html=1;rotation=-90;" vertex="1" parent="1">
          <mxGeometry x="920.6200000000001" y="260" width="27.49" height="210" as="geometry" />
        </mxCell>
        <mxCell id="TXdNwO6QXVmH625FBI-7-19" value="" style="whiteSpace=wrap;html=1;aspect=fixed;" vertex="1" parent="1">
          <mxGeometry x="919.38" y="159.53" width="121.25" height="121.25" as="geometry" />
        </mxCell>
        <mxCell id="TXdNwO6QXVmH625FBI-7-20" value="" style="rounded=0;whiteSpace=wrap;html=1;rotation=90;" vertex="1" parent="1">
          <mxGeometry x="966.26" y="-50" width="27.49" height="290" as="geometry" />
        </mxCell>
        <mxCell id="TXdNwO6QXVmH625FBI-7-21" value="" style="rounded=0;whiteSpace=wrap;html=1;rotation=-180;" vertex="1" parent="1">
          <mxGeometry x="1100" y="82.96000000000001" width="27.49" height="290" as="geometry" />
        </mxCell>
      </root>
    </mxGraphModel>
  </diagram>
</mxfile>
